<?xml version="1.0" encoding="UTF-8" standalone="no"?>
<!-- Created with Inkscape (http://www.inkscape.org/) -->

<svg
   xmlns:dc="http://purl.org/dc/elements/1.1/"
   xmlns:cc="http://creativecommons.org/ns#"
   xmlns:rdf="http://www.w3.org/1999/02/22-rdf-syntax-ns#"
   xmlns:svg="http://www.w3.org/2000/svg"
   xmlns="http://www.w3.org/2000/svg"
   xmlns:xlink="http://www.w3.org/1999/xlink"
   version="1.1"
   width="1000"
   height="986.54999"
   id="svg3355">
  <defs
     id="defs3357">
    <linearGradient
       x1="446.69531"
       y1="554.71881"
       x2="446.69531"
       y2="114.8413"
       id="DIAMOND_1_"
       gradientUnits="userSpaceOnUse">
      <stop
         id="stop237"
         style="stop-color:#b6101d;stop-opacity:1"
         offset="0" />
      <stop
         id="stop239"
         style="stop-color:#c6091e;stop-opacity:1"
         offset="0.15970001" />
      <stop
         id="stop241"
         style="stop-color:#d50220;stop-opacity:1"
         offset="0.36489999" />
      <stop
         id="stop243"
         style="stop-color:#da0020;stop-opacity:1"
         offset="0.53689998" />
    </linearGradient>
    <linearGradient
       x1="446.66211"
       y1="114.8408"
       x2="446.66211"
       y2="379.8335"
       id="DIAMOND_3_"
       gradientUnits="userSpaceOnUse"
       gradientTransform="translate(-64.430455,226.09377)">
      <stop
         id="stop259"
         style="stop-color:#fdedec;stop-opacity:1"
         offset="0" />
      <stop
         id="stop261"
         style="stop-color:#fce8e6;stop-opacity:1"
         offset="0.0744" />
      <stop
         id="stop263"
         style="stop-color:#fad8d6;stop-opacity:1"
         offset="0.1719" />
      <stop
         id="stop265"
         style="stop-color:#f6bfbb;stop-opacity:1"
         offset="0.28209999" />
      <stop
         id="stop267"
         style="stop-color:#f19c95;stop-opacity:1"
         offset="0.4007" />
      <stop
         id="stop269"
         style="stop-color:#ec786f;stop-opacity:1"
         offset="0.50309998" />
      <stop
         id="stop271"
         style="stop-color:#dc282f;stop-opacity:1"
         offset="1" />
    </linearGradient>
    <linearGradient
       x1="446.69531"
       y1="554.71881"
       x2="446.69531"
       y2="114.8413"
       id="SVGID_1_"
       gradientUnits="userSpaceOnUse">
      <stop
         id="stop276"
         style="stop-color:#9a161d;stop-opacity:1"
         offset="0" />
      <stop
         id="stop278"
         style="stop-color:#a6111f;stop-opacity:1"
         offset="0.1084" />
      <stop
         id="stop280"
         style="stop-color:#be0822;stop-opacity:1"
         offset="0.3655" />
      <stop
         id="stop282"
         style="stop-color:#cd0223;stop-opacity:1"
         offset="0.60369998" />
      <stop
         id="stop284"
         style="stop-color:#d20024;stop-opacity:1"
         offset="0.80299997" />
    </linearGradient>
    <linearGradient
       x1="351.1777"
       y1="324.90631"
       x2="543.28998"
       y2="324.90631"
       id="SVGID_2_"
       gradientUnits="userSpaceOnUse">
      <stop
         id="stop291"
         style="stop-color:#d20024;stop-opacity:1"
         offset="0" />
      <stop
         id="stop293"
         style="stop-color:#c20622;stop-opacity:1"
         offset="0.2406" />
      <stop
         id="stop295"
         style="stop-color:#a6101e;stop-opacity:1"
         offset="0.71990001" />
      <stop
         id="stop297"
         style="stop-color:#9c141c;stop-opacity:1"
         offset="1" />
    </linearGradient>
    <linearGradient
       x1="446.69531"
       y1="554.71881"
       x2="446.69531"
       y2="114.8413"
       id="linearGradient3353"
       xlink:href="#DIAMOND_1_"
       gradientUnits="userSpaceOnUse"
       gradientTransform="translate(-64.430455,226.09377)" />
    <linearGradient
       x1="446.69531"
       y1="554.71881"
       x2="446.69531"
       y2="114.8413"
       id="linearGradient4258"
       xlink:href="#SVGID_1_"
       gradientUnits="userSpaceOnUse" />
    <linearGradient
       x1="446.69531"
       y1="554.71881"
       x2="446.69531"
       y2="114.8413"
       id="linearGradient3327"
       gradientUnits="userSpaceOnUse">
      <stop
         id="stop3329"
         style="stop-color:#9a161d;stop-opacity:1"
         offset="0" />
      <stop
         id="stop3331"
         style="stop-color:#a6111f;stop-opacity:1"
         offset="0.1084" />
      <stop
         id="stop3333"
         style="stop-color:#be0822;stop-opacity:1"
         offset="0.3655" />
      <stop
         id="stop3335"
         style="stop-color:#cd0223;stop-opacity:1"
         offset="0.60369998" />
      <stop
         id="stop3337"
         style="stop-color:#d20024;stop-opacity:1"
         offset="0.80299997" />
    </linearGradient>
    <linearGradient
       x1="446.69531"
       y1="554.71881"
       x2="446.69531"
       y2="114.8413"
       id="linearGradient4267"
       xlink:href="#SVGID_1_"
       gradientUnits="userSpaceOnUse"
       gradientTransform="translate(-64.430455,226.09377)" />
    <linearGradient
       x1="446.69531"
       y1="554.71881"
       x2="446.69531"
       y2="114.8413"
       id="linearGradient4285"
       xlink:href="#DIAMOND_1_"
       gradientUnits="userSpaceOnUse"
       gradientTransform="translate(-64.430455,226.09377)" />
    <linearGradient
       x1="446.66211"
       y1="114.8408"
       x2="446.66211"
       y2="379.8335"
       id="linearGradient4287"
       xlink:href="#DIAMOND_3_"
       gradientUnits="userSpaceOnUse"
       gradientTransform="translate(-64.430455,226.09377)" />
    <linearGradient
       x1="446.69531"
       y1="554.71881"
       x2="446.69531"
       y2="114.8413"
       id="linearGradient4289"
       xlink:href="#SVGID_1_"
       gradientUnits="userSpaceOnUse"
       gradientTransform="translate(-64.430455,226.09377)" />
    <linearGradient
       x1="351.1777"
       y1="324.90631"
       x2="543.28998"
       y2="324.90631"
       id="linearGradient4291"
       xlink:href="#SVGID_2_"
       gradientUnits="userSpaceOnUse" />
  </defs>
  <metadata
     id="metadata3360">
    <rdf:RDF>
      <cc:Work
         rdf:about="">
        <dc:format>image/svg+xml</dc:format>
        <dc:type
           rdf:resource="http://purl.org/dc/dcmitype/StillImage" />
        <dc:title></dc:title>
      </cc:Work>
    </rdf:RDF>
  </metadata>
  <g
     transform="translate(-147.77759,-233.03679)"
     id="layer1">
    <g
       transform="matrix(1.7841092,0,0,1.7841092,23.331685,-223.46949)"
       id="g4271">
      <path
         d="m 591.35154,534.75277 -183.306,-182.975 c -14.504,-14.458 -37.896,-14.458 -52.301,0 l -182.65199,182.975 c -14.428,14.411 -14.383,37.834 0.106,52.28 l 183.33999,182.95 c 14.458,14.439 37.884,14.439 52.259,0 l 182.668,-182.95 c 14.406,-14.446 14.337,-37.869 -0.114,-52.28 z"
         id="DIAMOND"
         style="fill:url(#linearGradient4285)" />
      <path
         d="m 300.9375,283.90625 c -4.56199,-0.097 -9.07626,0.8175 -13.53125,2.6875 -4.455,1.873 -8.67026,4.78525 -12.65625,8.78125 -3.72701,3.736 -6.51499,7.81175 -8.375,12.21875 -1.86,4.41 -2.781,8.914 -2.75,13.5 0.031,4.589 1.025,9.118 3,13.625 1.97501,4.508 4.9195,8.71075 8.8125,12.59375 3.892,3.883 8.0775,6.812 12.5625,8.75 4.487,1.939 9.0025,2.92375 13.5625,2.96875 4.562,0.047 9.069,-0.8405 13.5,-2.6875 4.428,-1.847 8.5335,-4.67975 12.3125,-8.46875 3.676,-3.685 6.4505,-7.717 8.3125,-12.125 1.86,-4.409 2.74975,-8.912 2.71875,-13.5 -0.032,-4.586 -1.01975,-9.1535 -2.96875,-13.6875 -1.95,-4.532 -4.857,-8.742 -8.75,-12.625 -3.84,-3.831 -7.96075,-6.7705 -12.34375,-8.8125 -4.383,-2.042 -8.84525,-3.11975 -13.40625,-3.21875 z m -2.625,11.75 c 0.39525,0.002 0.789,0.009 1.1875,0.0312 3.18801,0.18 6.36725,1.03225 9.53125,2.53125 3.163,1.5 6.16575,3.6415 8.96875,6.4375 2.95799,2.95 5.17525,6.04425 6.65625,9.28125 1.48199,3.24 2.267,6.43275 2.375,9.59375 0.106,3.162 -0.43176,6.22625 -1.59375,9.15625 -1.163,2.931 -2.88875,5.54 -5.21875,7.875 -2.484,2.491 -5.20325,4.33625 -8.15625,5.53125 -2.953,1.196 -5.98476,1.74475 -9.09375,1.59375 -3.111,-0.152 -6.27875,-1.00425 -9.46875,-2.53125 -3.19,-1.525 -6.26075,-3.76775 -9.21875,-6.71875 -2.803,-2.796 -4.96275,-5.7765 -6.46875,-8.9375 -1.508,-3.159 -2.3505,-6.30575 -2.5625,-9.46875 -0.211,-3.16 0.238,-6.242 1.375,-9.25 1.136,-3.007 2.9525,-5.759 5.4375,-8.25 2.485,-2.492 5.2075,-4.28725 8.1875,-5.40625 2.60575,-0.97825 5.29578,-1.4816 8.0625,-1.46875 z m -56,36.125 c -0.18709,2.8e-4 -0.36812,0.0115 -0.5625,0.0312 -1.556,0.156 -2.935,0.83825 -4.125,2.03125 -1.191,1.194 -1.8365,2.52825 -1.9375,4.03125 -0.103,1.504 0.37975,2.81925 1.46875,3.90625 l 44,43.875 c 1.038,1.036 2.32,1.52475 3.875,1.46875 1.55499,-0.054 2.934,-0.681 4.125,-1.875 1.19,-1.193 1.83551,-2.61275 1.9375,-4.21875 0.10301,-1.606 -0.36726,-2.9015 -1.40625,-3.9375 l -43.96875,-43.875 c -0.95288,-0.95112 -2.09659,-1.43948 -3.40625,-1.4375 z m -16.34375,28.15625 c -4.43101,0.032 -8.8355,1.06675 -13.1875,3.09375 -4.351,2.027 -8.514,5.03725 -12.5,9.03125 l -10.34375,10.34375 c -1.191,1.195 -1.799,2.57725 -1.875,4.15625 -0.077,1.582 0.3995,2.9025 1.4375,3.9375 l 43.1875,43.09375 c 1.039,1.037 2.35025,1.51225 3.90625,1.40625 1.555,-0.104 2.934,-0.77375 4.125,-1.96875 l 10.25,-10.25 c 3.985,-3.996 6.98925,-8.21075 9.03125,-12.59375 2.042,-4.382 3.079,-8.75025 3.125,-13.15625 0.045,-4.406 -0.89475,-8.798 -2.84375,-13.125 -1.949,-4.325 -4.88825,-8.4295 -8.78125,-12.3125 -3.944,-3.934 -8.07425,-6.8725 -12.40625,-8.8125 -4.33001,-1.937 -8.693,-2.87375 -13.125,-2.84375 z m -2.125,11.125 c 0.37285,-0.012 0.75081,-0.0107 1.125,0 5.98699,0.174 11.9705,3.2345 17.9375,9.1875 5.916,5.902 8.915,11.86825 9,17.90625 0.085,6.04 -2.64851,11.822 -8.1875,17.375 l -5.96875,6 -36.28125,-36.1875 6.0625,-6.0625 c 5.28938,-5.3025 10.71973,-8.03874 16.3125,-8.21875 z M 163.5,411.25 c -0.60275,-0.0188 -1.20925,0.0392 -1.84375,0.15625 -1.269,0.236 -2.37,0.8055 -3.25,1.6875 -0.88,0.883 -1.487,1.8955 -1.875,3.0625 -0.387,1.166 -0.37425,2.34125 0.0937,3.53125 l 25.21875,62.875 c 0.26,0.778 0.702,1.5165 1.375,2.1875 0.987,0.985 2.19475,1.37675 3.59375,1.21875 1.399,-0.157 2.63175,-0.785 3.71875,-1.875 0.88,-0.882 1.50675,-1.85475 1.84375,-2.96875 0.335,-1.115 0.291,-2.15875 -0.125,-3.09375 l -5.625,-13.65625 21.5,-21.5625 13.09375,5.71875 c 0.98699,0.466 2.09975,0.52225 3.34375,0.15625 1.242,-0.364 2.25425,-0.94075 3.03125,-1.71875 1.449,-1.453 2.10501,-2.89275 2,-4.34375 -0.106,-1.45 -0.57525,-2.6085 -1.40625,-3.4375 -0.46799,-0.466 -1.15974,-0.8975 -2.09375,-1.3125 L 165.25,411.53125 c -0.5705,-0.154 -1.14725,-0.2625 -1.75,-0.28125 z m 5.34375,12.71875 c 4.929,2.431 9.849,4.845 14.75,7.25 4.902,2.404 9.88575,4.77925 14.96875,7.15625 l -16.15625,16.1875 -13.5625,-30.59375 z m -36.9375,25.34375 c -2.721,0.03 -5.42575,0.60075 -8.09375,1.71875 -2.669,1.118 -5.0865,2.80025 -7.3125,5.03125 l -16.875,16.875 c -1.192,1.195 -1.79275,2.572 -1.84375,4.125 -0.051,1.556 0.43075,2.87125 1.46875,3.90625 l 43.53125,43.40625 c 1.038,1.036 2.32,1.52475 3.875,1.46875 1.555,-0.053 2.934,-0.68 4.125,-1.875 1.19,-1.193 1.8355,-2.61175 1.9375,-4.21875 0.103,-1.606 -0.36725,-2.9015 -1.40625,-3.9375 l -17.65625,-17.625 8.375,-8.40625 31.25,7.5625 c 0.934,0.208 1.93174,0.1985 2.96875,-0.0625 1.035,-0.261 2.04724,-0.888 3.03125,-1.875 1.192,-0.987 1.847,-2.2565 2,-3.8125 0.154,-1.555 -0.2735,-2.86925 -1.3125,-3.90625 -0.259,-0.259 -0.73225,-0.5755 -1.40625,-0.9375 -0.673,-0.361 -1.25175,-0.53975 -1.71875,-0.59375 l -27.28125,-5.5 c 1.138,-1.866 1.95175,-3.8845 2.46875,-6.0625 0.516,-2.177 0.684,-4.40025 0.5,-6.65625 -0.184,-2.253 -0.7515,-4.48025 -1.6875,-6.65625 -0.936,-2.176 -2.26625,-4.114 -4.03125,-5.875 -2.024,-2.02 -4.3445,-3.55975 -6.9375,-4.59375 -2.593,-1.033 -5.24775,-1.528 -7.96875,-1.5 z m -1.75,10.53125 c 0.326,-0.009 0.66625,0.003 1,0.0312 2.66901,0.231 5.12325,1.50425 7.40625,3.78125 2.543,2.538 3.73525,5.2115 3.53125,8.0625 -0.204,2.851 -1.378,5.34175 -3.5,7.46875 l -11.96875,12 -15.5625,-15.53125 12.8125,-12.84375 c 1.90312,-1.90662 3.99924,-2.90594 6.28125,-2.96875 z"
         id="path248"
         style="fill:#d20024" />
      <path
         d="m 594.43854,538.24077 c -0.943,-1.211 -1.973,-2.376 -3.087,-3.488 l -183.306,-182.975 c -14.504,-14.458 -37.896,-14.458 -52.301,0 l -182.65199,182.975 c -1.109,1.107 -2.132,2.269 -3.069,3.475 0,0 85.26099,67.699 212.07099,67.699 126.81,0 212.344,-67.686 212.344,-67.686 z"
         id="DIAMOND_2_"
         style="fill:url(#linearGradient4287)" />
      <path
         d="m 381.85755,340.93477 c 9.46199,0 18.93599,3.614 26.18799,10.843 l 183.307,182.975 c 14.451,14.411 14.52,37.834 0.114,52.28 l -182.668,182.951 c -7.188,7.22 -16.63799,10.829 -26.099,10.829 -9.45999,0 -18.93099,-3.609 -26.16,-10.829 l -183.34,-182.95 c -14.49,-14.446 -14.534,-37.869 -0.106,-52.28 l 182.652,-182.975 c 7.20101,-7.23 16.65,-10.844 26.11201,-10.844 m 0,5 c -8.534,0 -16.55001,3.329 -22.57101,9.372 l -182.65499,182.978 c -6.022,6.016 -9.333,14.017 -9.33001,22.535 0.004,8.563 3.352,16.615 9.428,22.672 l 183.34201,182.952 c 6.05,6.042 14.08499,9.368 22.62799,9.368 8.538,0 16.548,-3.322 22.556,-9.356 l 182.673,-182.956 c 12.433,-12.468 12.386,-32.749 -0.106,-45.207 l -183.31,-182.976 c -6.068,-6.049 -14.115,-9.382 -22.65499,-9.382 l 0,0 z"
         id="path286"
         style="fill:url(#linearGradient4289)" />
      <g
         transform="translate(-64.430455,226.09377)"
         id="g288">
        <linearGradient
           x1="351.1777"
           y1="324.90631"
           x2="543.28998"
           y2="324.90631"
           id="linearGradient3341"
           gradientUnits="userSpaceOnUse">
          <stop
             id="stop3343"
             style="stop-color:#d20024;stop-opacity:1"
             offset="0" />
          <stop
             id="stop3345"
             style="stop-color:#c20622;stop-opacity:1"
             offset="0.2406" />
          <stop
             id="stop3347"
             style="stop-color:#a6101e;stop-opacity:1"
             offset="0.71990001" />
          <stop
             id="stop3349"
             style="stop-color:#9c141c;stop-opacity:1"
             offset="1" />
        </linearGradient>
        <path
           d="M 511.514,441.166 H 382.971 c -20.65,0 -31.793,-15.968 -31.793,-30.992 0,-22.642 8.074,-34.352 64.864,-73.589 l 29.936,-20.641 c 15.833,-10.896 18.93,-18.563 18.93,-28.126 0,-12.739 -8.372,-20.345 -22.395,-20.345 -14.595,0 -17.683,7.827 -21.958,18.659 -4.367,11.067 -9.802,24.841 -30.96,24.841 -23.138,0 -35.88,-12.556 -35.88,-35.356 0,-17.067 8.624,-33.88 23.661,-46.126 11.677,-9.51 32.786,-20.846 67.031,-20.846 70.355,0 95.423,39.28 95.423,76.04 0,27.365 -13.46,47.975 -43.644,66.83 l -43.211,27.06 h 58.538 c 20.788,0 31.776,10.821 31.776,31.294 10e-4,20.475 -10.987,31.297 -31.775,31.297 z"
           id="path299"
           style="fill:url(#linearGradient4291)" />
      </g>
      <path
         d="m 447.08354,609.66877 c 18.9,0 26.776,9.724 26.776,26.294 0,16.598 -7.876,26.297 -26.776,26.297 h -128.543 c -16.717,0 -26.793,-12.521 -26.793,-25.992 0,-19.408 4.721,-29.412 62.706,-69.476 l 29.932,-20.638 c 15.456,-10.636 21.092,-19.408 21.092,-32.242 0,-15.317 -10.389,-25.345 -27.395,-25.345 -35.913,0 -17.326,43.5 -52.918,43.5 -22.706,0 -30.88,-12.53 -30.88,-30.356 0,-30.035 29.619,-61.972 85.692,-61.972 67.106,0 90.423,36.307 90.423,71.04 0,26.297 -13.24,45.066 -41.293,62.589 l -57.006,35.698 v 0.602 h 74.983 z"
         id="path301"
         style="fill:#ffffff" />
    </g>
  </g>
</svg>
